Patient4_TMGait_0pt3_01_left_14_GRF.mot
version=1
nRows=65
nColumns=19
inDegrees=no
endheader
time	F1x	F1y	F1z	M1x	M1y	M1z	F2x	F2y	F2z	M2x	M2y	M2z	EC1x	EC1y	EC1z	EC2x	EC2y	EC2z
25.91	10.6569	78.773	9.5652	-30.0293	-3.5954	65.7044	-21.8301	671.4042	-48.6625	220.4495	58.0118	692.1711	-0.0592	0.0182	-0.0073	-0.0462	0.0165	0.9585
25.9289	6.6475	69.1609	8.9469	-26.2586	-4.78	58.198	-20.723	692.2875	-50.87	226.7585	60.3363	711.08	-0.0592	0.0182	-0.0073	-0.0462	0.0165	0.9585
25.9477	2.7883	57.8034	8.0609	-21.8654	-5.6536	49.0924	-20.0032	716.87	-53.5844	234.2831	63.1163	733.3732	-0.0592	0.0182	-0.0073	-0.0462	0.0165	0.9585
25.9666	-0.41825	45.6619	6.9223	-17.2183	-6.0268	39.1792	-19.8045	743.392	-56.6072	242.4703	66.1707	757.3793	-0.0592	0.0182	-0.0073	-0.0462	0.0165	0.9585
25.9854	-2.5661	33.8043	5.5919	-12.7148	-5.7976	29.3664	-20.1593	769.7731	-59.6635	250.6493	69.2483	781.0987	-0.0592	0.0182	-0.0073	-0.0462	0.0165	0.9585
26.0043	-3.4928	23.17	4.1843	-8.6997	-5.0062	20.4675	-20.9627	793.9864	-62.4665	258.1657	72.0563	802.549	-0.0592	0.0182	-0.0073	-0.0462	0.0165	0.9585
26.0231	-3.4859	14.4866	2.8706	-5.4341	-3.911	13.1256	-21.9695	814.3325	-64.7529	264.4789	74.2886	820.0213	-0.0592	0.0182	-0.0073	-0.0462	0.0165	0.9585
26.042	-2.9809	8.0067	1.7891	-3.0018	-2.8037	7.5878	-22.8503	829.6158	-66.3247	269.2153	75.6802	832.2644	-0.0592	0.0182	-0.0073	-0.0462	0.0165	0.9585
26.0609	-2.2877	3.5098	0.97685	-1.3114	-1.8429	3.6766	-23.2727	839.1676	-67.0956	272.1691	76.0744	838.5366	-0.0592	0.0182	-0.0073	-0.0462	0.0165	0.9585
26.0797	-1.6026	0.52779	0.4144	-0.18346	-1.0924	0.98902	-22.9761	842.7553	-67.0895	273.271	75.4393	838.5464	-0.0592	0.0182	-0.0073	-0.0462	0.0165	0.9585
26.0986	-1.0345	-1.4803	0.054795	0.58581	-0.55513	-0.93677	-21.824	840.5648	-66.3822	272.5857	73.8257	832.4442	-0.0592	0.0182	-0.0073	-0.0462	0.0165	0.9585
26.1174	-0.62324	-3.0198	-0.16256	1.1865	-0.19622	-2.5378	-19.7815	833.2576	-65.0657	270.3339	71.3254	820.8678	-0.0592	0.0182	-0.0073	-0.0462	0.0165	0.9585
26.1363	-0.36116	-4.4799	-0.29923	1.7644	0.038895	-4.1528	-16.8581	821.9471	-63.2455	266.883	68.0485	804.9061	-0.0592	0.0182	-0.0073	-0.0462	0.0165	0.9585
26.1551	-0.21082	-6.0782	-0.40702	2.3978	0.21039	-5.9535	-13.0947	808.0319	-61.0494	262.688	64.129	785.9333	-0.0592	0.0182	-0.0073	-0.0462	0.0165	0.9585
26.174	-0.11102	-7.8008	-0.52024	3.0768	0.37329	-7.8898	-8.5579	792.9224	-58.6318	258.1984	59.7318	765.3492	-0.0592	0.0182	-0.0073	-0.0462	0.0165	0.9585
26.1929	0.016516	-9.3449	-0.65488	3.681	0.57032	-9.6293	-3.3466	777.7877	-56.1602	253.7756	55.0423	744.351	-0.0592	0.0182	-0.0073	-0.0462	0.0165	0.9585
26.2117	0.26029	-10.0667	-0.80336	3.9559	0.82394	-10.4854	2.3792	763.3439	-53.7992	249.622	50.263	723.7583	-0.0592	0.0182	-0.0073	-0.0462	0.0165	0.9585
26.2306	0.71292	-8.9275	-0.92706	3.4916	1.1281	-9.3613	8.3706	749.7275	-51.6894	245.7373	45.609	703.8975	-0.0592	0.0182	-0.0073	-0.0462	0.0165	0.9585
26.2494	1.4644	-4.4687	-0.95132	1.7128	1.437	-4.7254	14.2967	736.5134	-49.9243	241.9312	41.2811	684.6089	-0.0592	0.0182	-0.0073	-0.0462	0.0165	0.9585
26.2683	2.5841	5.1366	-0.76104	-2.1031	1.6496	5.3442	19.7699	722.8254	-48.5333	237.8654	37.4424	665.3433	-0.0592	0.0182	-0.0073	-0.0462	0.0165	0.9585
26.2871	4.0916	21.9094	-0.19909	-8.7547	1.5996	22.972	24.3816	707.4238	-47.4816	233.0886	34.2119	645.2256	-0.0592	0.0182	-0.0073	-0.0462	0.0165	0.9585
26.306	5.9267	47.6975	0.92801	-18.9692	1.0525	50.099	27.7457	688.8383	-46.6677	227.0892	31.645	623.1559	-0.0592	0.0182	-0.0073	-0.0462	0.0165	0.9585
26.3249	7.8688	83.5608	2.8323	-33.1588	-0.30252	87.8421	29.5338	665.6028	-45.92	219.379	29.7234	598.0026	-0.0592	0.0182	-0.0073	-0.0462	0.0165	0.9585
26.3437	9.3235	128.9647	5.6822	-51.1008	-2.8694	135.644	29.5133	636.5427	-44.9925	209.5934	28.3385	568.8337	-0.0592	0.0182	-0.0073	-0.0462	0.0165	0.9585
26.3626	9.3643	181.0325	9.5165	-71.6462	-7.0327	190.4877	27.6449	601.169	-43.6016	197.6157	27.2895	535.2263	-0.0592	0.0182	-0.0073	-0.0462	0.0165	0.9585
26.3814	7.6823	235.59	14.1842	-93.1474	-12.7271	247.9536	24.1976	560.1933	-41.5501	183.7332	26.3417	497.6869	-0.0592	0.0182	-0.0073	-0.0462	0.0165	0.9585
26.4003	4.6477	290.0233	19.2259	-114.5809	-19.3125	305.2168	19.7347	515.6267	-38.8412	168.6561	25.32	457.757	-0.0592	0.0182	-0.0073	-0.0462	0.0165	0.9585
26.4191	0.85584	343.1142	24.0759	-135.4804	-25.9523	360.9342	14.9343	469.9953	-35.6213	153.255	24.1212	417.3867	-0.0592	0.0182	-0.0073	-0.0462	0.0165	0.9585
26.438	-3.1469	393.6366	28.2507	-155.3711	-31.9148	413.7824	10.382	425.5202	-32.0636	138.2938	22.6799	378.2875	-0.0592	0.0182	-0.0073	-0.0462	0.0165	0.9585
26.4569	-6.911	439.9929	31.4516	-173.6169	-36.6998	462.0507	6.4781	383.7629	-28.3692	124.3093	21.0022	341.6509	-0.0592	0.0182	-0.0073	-0.0462	0.0165	0.9585
26.4757	-10.0542	480.6354	33.6298	-189.5871	-40.0987	504.0792	3.4174	345.503	-24.7623	111.5673	19.176	308.045	-0.0592	0.0182	-0.0073	-0.0462	0.0165	0.9585
26.4946	-12.2461	514.5712	34.9241	-202.8643	-42.1301	538.7685	1.2204	310.8339	-21.4256	100.0973	17.317	277.4941	-0.0592	0.0182	-0.0073	-0.0462	0.0165	0.9585
26.5134	-13.2975	541.5511	35.5432	-213.3361	-42.9488	565.7943	-0.19834	279.4856	-18.4669	89.8005	15.5216	249.7508	-0.0592	0.0182	-0.0073	-0.0462	0.0165	0.9585
26.5323	-13.1947	562.1302	35.657	-221.2223	-42.7422	585.6998	-0.96121	251.0851	-15.9202	80.539	13.8428	224.5015	-0.0592	0.0182	-0.0073	-0.0462	0.0165	0.9585
26.5511	-12.0705	577.545	35.3901	-227.0217	-41.7091	599.7857	-1.2026	225.3058	-13.7725	72.1862	12.3045	201.4808	-0.0592	0.0182	-0.0073	-0.0462	0.0165	0.9585
26.57	-10.1835	589.3288	34.8845	-231.3494	-40.1182	609.7162	-1.0678	201.9539	-11.9942	64.6592	10.9271	180.5465	-0.0592	0.0182	-0.0073	-0.0462	0.0165	0.9585
26.5889	-7.8568	599.0061	34.3207	-234.8093	-38.3028	617.186	-0.70556	180.9671	-10.5519	57.9216	9.7326	161.679	-0.0592	0.0182	-0.0073	-0.0462	0.0165	0.9585
26.6077	-5.4188	607.8931	33.8812	-237.9158	-36.5982	623.6945	-0.25059	162.3099	-9.4106	51.9482	8.738	144.8738	-0.0592	0.0182	-0.0073	-0.0462	0.0165	0.9585
26.6266	-3.1465	616.9363	33.7049	-241.0337	-35.2691	630.353	0.19638	145.838	-8.5421	46.6806	7.9522	130.0197	-0.0592	0.0182	-0.0073	-0.0462	0.0165	0.9585
26.6454	-1.1993	626.5892	33.8688	-244.337	-34.4628	637.7285	0.58621	131.2276	-7.9201	42.0034	7.366	116.8387	-0.0592	0.0182	-0.0073	-0.0462	0.0165	0.9585
26.6643	0.38292	636.7627	34.3969	-247.7942	-34.2144	645.795	0.90961	117.992	-7.508	37.7504	6.9483	104.9072	-0.0592	0.0182	-0.0073	-0.0462	0.0165	0.9585
26.6831	1.6449	646.9484	35.2498	-251.2244	-34.4541	654.0706	1.1629	105.587	-7.2555	33.7433	6.6549	93.7518	-0.0592	0.0182	-0.0073	-0.0462	0.0165	0.9585
26.702	2.683	656.4865	36.3259	-254.4071	-35.0292	661.8878	1.3357	93.565	-7.0875	29.8418	6.4268	82.9727	-0.0592	0.0182	-0.0073	-0.0462	0.0165	0.9585
26.7209	3.6088	664.8589	37.4828	-257.1895	-35.7416	668.699	1.4205	81.6814	-6.9075	25.9764	6.1893	72.344	-0.0592	0.0182	-0.0073	-0.0462	0.0165	0.9585
26.7397	4.4958	671.8876	38.5796	-259.549	-36.4128	674.2813	1.402	69.9189	-6.6187	22.1537	5.8716	61.8443	-0.0592	0.0182	-0.0073	-0.0462	0.0165	0.9585
26.7586	5.3407	677.8335	39.5251	-261.62	-36.9457	678.8482	1.2588	58.4303	-6.1526	18.4351	5.4289	51.6043	-0.0592	0.0182	-0.0073	-0.0462	0.0165	0.9585
26.7774	6.0605	683.3988	40.2993	-263.6821	-37.3419	683.0583	0.9837	47.4386	-5.4903	14.9012	4.8544	41.8279	-0.0592	0.0182	-0.0073	-0.0462	0.0165	0.9585
26.7963	6.5024	689.6186	40.9655	-266.1133	-37.7116	687.9134	0.58642	37.1695	-4.6655	11.6266	4.1786	32.7204	-0.0592	0.0182	-0.0073	-0.0462	0.0165	0.9585
26.8151	6.4788	697.7256	41.6516	-269.3417	-38.2455	694.6208	0.09921	27.8369	-3.7444	8.6761	3.4522	24.475	-0.0592	0.0182	-0.0073	-0.0462	0.0165	0.9585
26.834	5.8226	709.004	42.5039	-273.8	-39.1493	704.4379	-0.38881	19.627	-2.8034	6.1018	2.7143	17.2521	-0.0592	0.0182	-0.0073	-0.0462	0.0165	0.9585
26.8529	4.4493	724.5507	43.6486	-279.8491	-40.5798	718.428	-0.75372	12.7078	-1.9183	3.9486	1.9956	11.1941	-0.0592	0.0182	-0.0073	-0.0462	0.0165	0.9585
26.8717	2.4006	744.9394	45.168	-287.6624	-42.6049	737.116	-0.9052	7.2292	-1.157	2.2567	1.3316	6.4188	-0.0592	0.0182	-0.0073	-0.0462	0.0165	0.9585
26.8906	-0.14697	769.9645	47.0709	-297.1424	-45.1716	760.2239	-0.8782	3.2543	-0.56599	1.0393	0.77491	2.9673	-0.0592	0.0182	-0.0073	-0.0462	0.0165	0.9585
26.9094	-2.9153	798.5567	49.272	-307.8937	-48.093	786.5973	-0.7574	0.65711	-0.15444	0.25296	0.35784	0.72382	-0.0592	0.0182	-0.0073	-0.0462	0.0165	0.9585
26.9283	-5.5702	828.8555	51.5875	-319.24	-51.0618	814.2914	-0.60402	-0.82014	0.098333	-0.18555	0.078337	-0.54031	-0.0592	0.0182	-0.0073	-0.0462	0.0165	0.9585
26.9471	-7.7643	858.3643	53.7723	-330.2676	-53.7037	840.754	-0.4571	-1.4733	0.23064	-0.37068	-0.086361	-1.0854	-0.0592	0.0182	-0.0073	-0.0462	0.0165	0.9585
26.966	-9.2099	884.1771	55.5745	-339.8967	-55.6581	863.0874	-0.33711	-1.5811	0.28079	-0.38956	-0.16569	-1.1554	-0.0592	0.0182	-0.0073	-0.0462	0.0165	0.9585
26.9849	-9.7298	903.3547	56.7861	-347.019	-56.6495	878.445	-0.24975	-1.3769	0.28067	-0.31476	-0.18873	-0.95574	-0.0592	0.0182	-0.0073	-0.0462	0.0165	0.9585
27.0037	-9.259	913.401	57.2751	-350.6803	-56.5224	884.4929	-0.19597	-1.044	0.25654	-0.20383	-0.17962	-0.64944	-0.0592	0.0182	-0.0073	-0.0462	0.0165	0.9585
27.0226	-7.8346	912.7202	56.9919	-350.2582	-55.2464	879.8386	-0.17422	-0.72164	0.22623	-0.10067	-0.15446	-0.36274	-0.0592	0.0182	-0.0073	-0.0462	0.0165	0.9585
27.0414	-5.5811	900.9397	55.9705	-345.5914	-52.9125	864.313	-0.18128	-0.51238	0.20242	-0.038425	-0.12464	-0.19445	-0.0592	0.0182	-0.0073	-0.0462	0.0165	0.9585
27.0603	-2.674	879.0586	54.3255	-337.0421	-49.7126	839.0698	-0.21205	-0.49785	0.19376	-0.044587	-0.10086	-0.2282	-0.0592	0.0182	-0.0073	-0.0462	0.0165	0.9585
27.0791	0.70352	849.3679	52.2386	-325.4713	-45.9082	806.4508	-0.25745	-0.74786	0.20682	-0.14433	-0.093949	-0.53603	-0.0592	0.0182	-0.0073	-0.0462	0.0165	0.9585
27.098	4.3862	815.0973	49.9457	-312.1037	-41.806	769.6158	-0.30395	-1.3219	0.24391	-0.35929	-0.11302	-1.1753	-0.0592	0.0182	-0.0073	-0.0462	0.0165	0.9585
27.1169	8.2459	779.9119	47.7048	-298.3366	-37.7149	732.0641	-0.33311	-2.2585	0.30339	-0.70307	-0.16439	-2.1798	-0.0592	0.0182	-0.0073	-0.0462	0.0165	0.9585
